<?xml version="1.0" encoding="UTF-8" standalone="no"?>
<svg width="104px" height="104px" viewBox="0 0 104 104" version="1.1" xmlns="http://www.w3.org/2000/svg" xmlns:xlink="http://www.w3.org/1999/xlink" xmlns:sketch="http://www.bohemiancoding.com/sketch/ns">
    <!-- Generator: Sketch 3.3.2 (12043) - http://www.bohemiancoding.com/sketch -->
    <title>g153</title>
    <desc>Created with Sketch.</desc>
    <defs></defs>
    <g id="Page-1" stroke="none" stroke-width="1" fill="none" fill-rule="evenodd" sketch:type="MSPage">
        <g id="g153" sketch:type="MSLayerGroup" fill="#000000">
            <path d="M88.77,15.23 C68.494,-5.044 35.506,-5.044 15.23,15.23 C-5.044,35.506 -5.044,68.494 15.23,88.77 C35.506,109.044 68.494,109.044 88.77,88.77 C109.044,68.494 109.044,35.506 88.77,15.23 L88.77,15.23 Z M66.85,72.506 L52,57.656 L36.444,73.214 C34.882,74.776 32.348,74.776 30.786,73.214 C29.224,71.652 29.224,69.118 30.786,67.556 L46.344,52 L31.494,37.15 C29.932,35.588 29.932,33.056 31.494,31.494 C33.056,29.932 35.588,29.932 37.15,31.494 L52,46.344 L66.142,32.202 C67.704,30.64 70.236,30.64 71.8,32.202 C73.362,33.764 73.362,36.296 71.8,37.858 L57.656,52 L72.506,66.85 C74.068,68.412 74.068,70.944 72.506,72.506 C70.944,74.068 68.412,74.068 66.85,72.506 L66.85,72.506 Z" id="Fill-91" sketch:type="MSShapeGroup"></path>
        </g>
    </g>
</svg>