<?xml version="1.0" encoding="UTF-8" standalone="no"?>
<svg width="54px" height="54px" viewBox="0 0 54 54" version="1.1" xmlns="http://www.w3.org/2000/svg" xmlns:xlink="http://www.w3.org/1999/xlink" xmlns:sketch="http://www.bohemiancoding.com/sketch/ns">
    <!-- Generator: Sketch 3.2.2 (9983) - http://www.bohemiancoding.com/sketch -->
    <title>76 - Down (Solid)</title>
    <desc>Created with Sketch.</desc>
    <defs></defs>
    <g id="Page-1" stroke="none" stroke-width="1" fill="none" fill-rule="evenodd" sketch:type="MSPage">
        <g id="76---Down-(Solid)" sketch:type="MSLayerGroup" fill="#000000">
            <path d="M27,0 C12.112,0 0,12.112 0,27 C0,41.888 12.112,54 27,54 C41.888,54 54,41.888 54,27 C54,12.112 41.888,0 27,0 L27,0 Z M39.707,23.001 L28.209,34.499 C27.876,34.832 27.438,34.999 27,34.999 C26.563,34.999 26.125,34.832 25.791,34.499 L14.293,23.001 C13.902,22.61 13.902,21.977 14.293,21.587 C14.684,21.196 15.316,21.196 15.707,21.587 L27,32.88 L38.293,21.587 C38.684,21.196 39.316,21.196 39.707,21.587 C40.098,21.977 40.098,22.61 39.707,23.001 L39.707,23.001 Z" id="Down" sketch:type="MSShapeGroup"></path>
        </g>
    </g>
</svg>