<?xml version="1.0" encoding="UTF-8" standalone="no"?>
<svg width="54px" height="54px" viewBox="0 0 54 54" version="1.1" xmlns="http://www.w3.org/2000/svg" xmlns:xlink="http://www.w3.org/1999/xlink" xmlns:sketch="http://www.bohemiancoding.com/sketch/ns">
    <!-- Generator: Sketch 3.2.2 (9983) - http://www.bohemiancoding.com/sketch -->
    <title>74 - Left (Solid)</title>
    <desc>Created with Sketch.</desc>
    <defs></defs>
    <g id="Page-1" stroke="none" stroke-width="1" fill="none" fill-rule="evenodd" sketch:type="MSPage">
        <g id="74---Left-(Solid)" sketch:type="MSLayerGroup" fill="#000000">
            <path d="M27,0 C12.112,0 0,12.112 0,27 C0,41.888 12.112,54 27,54 C41.888,54 54,41.888 54,27 C54,12.112 41.888,0 27,0 L27,0 Z M32.413,38.293 C32.804,38.684 32.804,39.316 32.413,39.707 C32.218,39.902 31.962,40 31.706,40 C31.45,40 31.194,39.902 30.999,39.707 L19.501,28.209 C18.834,27.542 18.834,26.458 19.501,25.791 L30.999,14.293 C31.39,13.902 32.023,13.902 32.413,14.293 C32.804,14.684 32.804,15.316 32.413,15.707 L21.12,27 L32.413,38.293 L32.413,38.293 Z" id="Left" sketch:type="MSShapeGroup"></path>
        </g>
    </g>
</svg>