<?xml version="1.0" encoding="UTF-8" standalone="no"?>
<svg width="54px" height="51px" viewBox="0 0 54 51" version="1.1" xmlns="http://www.w3.org/2000/svg" xmlns:xlink="http://www.w3.org/1999/xlink" xmlns:sketch="http://www.bohemiancoding.com/sketch/ns">
    <!-- Generator: Sketch 3.2.2 (9983) - http://www.bohemiancoding.com/sketch -->
    <title>63 - Half Circuit (Solid)</title>
    <desc>Created with Sketch.</desc>
    <defs></defs>
    <g id="Page-1" stroke="none" stroke-width="1" fill="none" fill-rule="evenodd" sketch:type="MSPage">
        <g id="63---Half-Circuit-(Solid)" sketch:type="MSLayerGroup" fill="#000000">
            <path d="M52.5,25.047 C51.672,25.047 51,24.375 51,23.547 C51,12.243 41.804,3.047 30.5,3.047 C20.573,3.047 12.276,10.141 10.401,19.524 L14.44,15.486 C14.732,15.193 15.116,15.047 15.5,15.047 C15.884,15.047 16.268,15.193 16.561,15.486 C17.146,16.072 17.146,17.022 16.561,17.607 L9.561,24.607 C9.422,24.747 9.255,24.857 9.07,24.933 C9.062,24.937 9.055,24.937 9.047,24.94 C8.877,25.007 8.693,25.047 8.5,25.047 C8.307,25.047 8.123,25.007 7.953,24.94 C7.945,24.937 7.938,24.937 7.93,24.933 C7.745,24.857 7.578,24.747 7.44,24.607 L0.44,17.607 C-0.146,17.022 -0.146,16.072 0.44,15.486 C0.732,15.193 1.116,15.047 1.5,15.047 C1.884,15.047 2.268,15.193 2.56,15.486 L7.246,20.172 C8.888,8.808 18.688,0.047 30.5,0.047 C43.458,0.047 54,10.589 54,23.547 C54,24.375 53.328,25.047 52.5,25.047" id="Fill-120" sketch:type="MSShapeGroup"></path>
            <path d="M42.246,44.351 C42.751,43.997 43.247,43.615 43.722,43.214 C44.003,42.977 44.347,42.86 44.688,42.86 C45.115,42.86 45.539,43.041 45.836,43.393 C46.37,44.025 46.29,44.972 45.657,45.507 C45.113,45.965 44.545,46.403 43.967,46.808 C43.289,47.282 42.352,47.119 41.878,46.439 C41.402,45.761 41.567,44.825 42.246,44.351" id="Fill-121" sketch:type="MSShapeGroup"></path>
            <path d="M37.289,46.896 C37.867,46.693 38.448,46.459 39.019,46.199 C39.221,46.107 39.432,46.064 39.64,46.064 C40.209,46.064 40.754,46.391 41.006,46.942 C41.349,47.696 41.017,48.586 40.263,48.93 C39.61,49.227 38.944,49.495 38.283,49.727 C37.499,50 36.644,49.591 36.371,48.809 C36.097,48.026 36.508,47.17 37.289,46.896" id="Fill-122" sketch:type="MSShapeGroup"></path>
            <path d="M31.831,48.004 C32.448,47.965 33.071,47.897 33.684,47.801 C33.762,47.789 33.839,47.783 33.916,47.783 C34.643,47.783 35.281,48.313 35.397,49.053 C35.523,49.871 34.963,50.638 34.145,50.766 C33.443,50.874 32.729,50.953 32.023,50.998 C31.197,51.038 30.482,50.423 30.43,49.597 C30.377,48.771 31.004,48.057 31.831,48.004" id="Fill-123" sketch:type="MSShapeGroup"></path>
            <path d="M52.065,32.164 C51.245,32.047 50.676,31.287 50.794,30.467 C50.881,29.86 50.941,29.236 50.974,28.612 C51.016,27.812 51.678,27.19 52.471,27.19 C52.497,27.19 52.523,27.191 52.55,27.193 C53.377,27.235 54.013,27.941 53.97,28.769 C53.933,29.482 53.863,30.197 53.763,30.893 C53.646,31.714 52.88,32.29 52.065,32.164" id="Fill-124" sketch:type="MSShapeGroup"></path>
            <path d="M49.262,35.82 C49.512,35.256 49.738,34.673 49.935,34.087 C50.146,33.46 50.729,33.065 51.356,33.065 C51.515,33.065 51.676,33.089 51.834,33.143 C52.619,33.406 53.042,34.257 52.778,35.042 C52.553,35.715 52.292,36.385 52.006,37.033 C51.671,37.79 50.788,38.134 50.027,37.799 C49.269,37.464 48.927,36.578 49.262,35.82" id="Fill-125" sketch:type="MSShapeGroup"></path>
            <path d="M46.338,40.564 C46.732,40.084 47.108,39.582 47.456,39.073 C47.746,38.648 48.217,38.418 48.696,38.418 C48.987,38.418 49.281,38.502 49.54,38.679 C50.225,39.145 50.401,40.078 49.935,40.763 C49.537,41.347 49.106,41.921 48.654,42.47 C48.128,43.108 47.184,43.2 46.543,42.675 C45.903,42.149 45.812,41.203 46.338,40.564" id="Fill-126" sketch:type="MSShapeGroup"></path>
            <path d="M15.457,42.101 C15.825,42.101 16.193,42.235 16.483,42.507 C16.934,42.929 17.409,43.336 17.898,43.718 C18.552,44.227 18.668,45.171 18.158,45.823 C17.648,46.477 16.703,46.593 16.053,46.083 C15.492,45.646 14.946,45.179 14.431,44.694 C13.827,44.128 13.796,43.179 14.363,42.574 C14.658,42.26 15.058,42.101 15.457,42.101" id="Fill-127" sketch:type="MSShapeGroup"></path>
            <path d="M8.905,32.026 C9.04,31.989 9.175,31.972 9.309,31.972 C9.965,31.972 10.568,32.406 10.753,33.069 C10.918,33.664 11.114,34.259 11.334,34.835 C11.63,35.609 11.241,36.477 10.468,36.771 C9.693,37.069 8.827,36.679 8.531,35.905 C8.278,35.242 8.053,34.559 7.862,33.874 C7.641,33.076 8.107,32.249 8.905,32.026" id="Fill-128" sketch:type="MSShapeGroup"></path>
            <path d="M8.5,26.047 C9.328,26.047 10,26.719 10,27.547 C10,28.169 10.028,28.795 10.084,29.407 C10.158,30.232 9.55,30.962 8.726,31.037 C7.889,31.118 7.171,30.504 7.096,29.679 C7.032,28.976 7,28.259 7,27.547 C7,26.719 7.672,26.047 8.5,26.047" id="Fill-129" sketch:type="MSShapeGroup"></path>
            <path d="M25.96,47.578 C26.063,47.578 26.166,47.588 26.27,47.61 C26.873,47.736 27.492,47.837 28.109,47.909 C28.932,48.006 29.521,48.751 29.425,49.574 C29.328,50.397 28.58,50.98 27.76,50.89 C27.054,50.807 26.345,50.692 25.654,50.546 C24.844,50.376 24.324,49.581 24.494,48.771 C24.642,48.064 25.266,47.578 25.96,47.578" id="Fill-130" sketch:type="MSShapeGroup"></path>
            <path d="M20.335,45.563 C20.569,45.563 20.807,45.617 21.028,45.733 C21.574,46.019 22.143,46.282 22.716,46.518 C23.481,46.832 23.848,47.709 23.533,48.476 C23.219,49.24 22.344,49.606 21.575,49.293 C20.918,49.023 20.267,48.72 19.64,48.392 C18.905,48.009 18.621,47.103 19.005,46.368 C19.273,45.856 19.795,45.563 20.335,45.563" id="Fill-131" sketch:type="MSShapeGroup"></path>
            <path d="M10.908,37.676 C11.151,37.528 11.421,37.458 11.687,37.458 C12.192,37.458 12.687,37.715 12.97,38.179 C13.291,38.709 13.641,39.229 14.008,39.725 C14.501,40.39 14.361,41.329 13.695,41.822 C13.029,42.316 12.091,42.176 11.598,41.51 C11.176,40.942 10.775,40.345 10.405,39.737 C9.976,39.029 10.2,38.107 10.908,37.676" id="Fill-132" sketch:type="MSShapeGroup"></path>
        </g>
    </g>
</svg>