<?xml version="1.0" encoding="UTF-8" standalone="no"?>
<svg width="100px" height="106px" viewBox="0 0 100 106" version="1.1" xmlns="http://www.w3.org/2000/svg" xmlns:xlink="http://www.w3.org/1999/xlink" xmlns:sketch="http://www.bohemiancoding.com/sketch/ns">
    <!-- Generator: Sketch 3.3.2 (12043) - http://www.bohemiancoding.com/sketch -->
    <title>a103</title>
    <desc>Created with Sketch.</desc>
    <defs></defs>
    <g id="Page-1" stroke="none" stroke-width="1" fill="none" fill-rule="evenodd" sketch:type="MSPage">
        <g id="a103" sketch:type="MSLayerGroup" fill="#000000">
            <path d="M46.872,9 C55.104,9.042 62.968,11.488 69.666,16 L60,16 C58.344,16 57,17.344 57,19 C57,20.656 58.344,22 60,22 L78,22 C78.388,22 78.756,21.92 79.096,21.786 C79.11,21.78 79.126,21.778 79.14,21.772 C79.88,21.468 80.47,20.878 80.774,20.14 C80.78,20.124 80.782,20.11 80.788,20.094 C80.922,19.754 81,19.386 81,19 L81,3 C81,1.344 79.658,0 78,0 C76.344,0 75,1.344 75,3 L75,12.436 C66.922,6.366 57.16,3.052 46.902,3 L46.662,3 C34.178,3 22.464,7.844 13.654,16.654 C-3.74,34.046 -4.58,62.24 11.74,80.838 C12.334,81.514 13.164,81.86 13.996,81.86 C14.7,81.86 15.404,81.614 15.974,81.114 C17.218,80.022 17.342,78.124 16.25,76.88 C2.008,60.652 2.732,36.06 17.896,20.896 C25.622,13.17 35.988,8.922 46.872,9" id="Fill-151" sketch:type="MSShapeGroup"></path>
            <path d="M27.35,90 L40,90 C41.658,90 43,88.656 43,87 C43,85.344 41.658,84 40,84 L22,84 C21.614,84 21.246,84.08 20.906,84.214 C20.892,84.218 20.876,84.22 20.862,84.226 C20.122,84.532 19.532,85.12 19.228,85.86 C19.222,85.874 19.22,85.89 19.214,85.906 C19.08,86.244 19,86.612 19,87 L19,103 C19,104.656 20.344,106 22,106 C23.658,106 25,104.656 25,103 L25,92.218 C25.648,92.096 26.26,91.77 26.722,91.234 C27.04,90.866 27.24,90.442 27.35,90" id="Fill-152" sketch:type="MSShapeGroup"></path>
            <path d="M89.904,38.402 C90.442,39.516 90.934,40.668 91.37,41.828 C91.822,43.032 92.964,43.774 94.178,43.774 C94.53,43.774 94.886,43.712 95.232,43.582 C96.784,43 97.57,41.272 96.988,39.718 C96.49,38.39 95.924,37.07 95.306,35.792 C94.586,34.298 92.79,33.674 91.3,34.396 C89.808,35.118 89.184,36.91 89.904,38.402" id="Fill-153" sketch:type="MSShapeGroup"></path>
            <path d="M95.768,45.524 C94.138,45.816 93.052,47.376 93.346,49.008 C93.566,50.226 93.732,51.47 93.84,52.702 C93.978,54.264 95.288,55.44 96.826,55.44 C96.914,55.44 97.004,55.436 97.092,55.428 C98.744,55.282 99.962,53.826 99.818,52.176 C99.692,50.764 99.502,49.34 99.252,47.946 C98.956,46.314 97.394,45.236 95.768,45.524" id="Fill-154" sketch:type="MSShapeGroup"></path>
            <path d="M86.074,32.016 C86.662,32.82 87.574,33.246 88.5,33.246 C89.112,33.246 89.732,33.058 90.266,32.668 C91.604,31.692 91.896,29.814 90.92,28.476 C90.084,27.332 89.184,26.212 88.248,25.146 C87.154,23.9 85.258,23.78 84.014,24.874 C82.768,25.966 82.648,27.864 83.742,29.108 C84.56,30.038 85.344,31.018 86.074,32.016" id="Fill-155" sketch:type="MSShapeGroup"></path>
            <path d="M35.758,93.072 C34.636,92.544 33.528,91.958 32.468,91.336 C31.04,90.496 29.204,90.974 28.362,92.4 C27.522,93.828 27.998,95.668 29.426,96.508 C30.644,97.224 31.916,97.894 33.206,98.502 C33.618,98.696 34.052,98.786 34.48,98.786 C35.606,98.786 36.686,98.15 37.198,97.064 C37.902,95.564 37.258,93.778 35.758,93.072" id="Fill-156" sketch:type="MSShapeGroup"></path>
            <path d="M78.052,88.656 C77.07,89.41 76.042,90.124 74.998,90.782 C73.594,91.664 73.172,93.518 74.056,94.92 C74.626,95.826 75.6,96.322 76.598,96.322 C77.144,96.322 77.696,96.174 78.192,95.862 C79.394,95.106 80.576,94.282 81.704,93.418 C83.018,92.408 83.266,90.526 82.258,89.21 C81.25,87.896 79.362,87.648 78.052,88.656" id="Fill-157" sketch:type="MSShapeGroup"></path>
            <path d="M90.098,80.138 C88.774,79.144 86.896,79.41 85.898,80.734 C85.158,81.72 84.36,82.688 83.528,83.606 C82.416,84.834 82.512,86.732 83.74,87.844 C84.314,88.364 85.034,88.62 85.752,88.62 C86.57,88.62 87.384,88.286 87.978,87.632 C88.93,86.578 89.844,85.47 90.696,84.34 C91.69,83.014 91.424,81.134 90.098,80.138" id="Fill-158" sketch:type="MSShapeGroup"></path>
            <path d="M95.166,69.276 C93.62,68.686 91.886,69.45 91.29,70.998 C90.844,72.156 90.342,73.302 89.796,74.404 C89.06,75.89 89.668,77.69 91.154,78.426 C91.58,78.636 92.036,78.736 92.482,78.736 C93.588,78.736 94.65,78.124 95.172,77.068 C95.8,75.8 96.378,74.484 96.89,73.154 C97.484,71.608 96.714,69.87 95.166,69.276" id="Fill-159" sketch:type="MSShapeGroup"></path>
            <path d="M97.088,57.444 C95.436,57.278 93.978,58.504 93.824,60.152 C93.71,61.386 93.538,62.626 93.312,63.842 C93.008,65.47 94.084,67.036 95.712,67.34 C95.898,67.374 96.082,67.39 96.264,67.39 C97.682,67.39 98.942,66.382 99.21,64.94 C99.47,63.544 99.666,62.122 99.798,60.706 C99.952,59.056 98.738,57.596 97.088,57.444" id="Fill-160" sketch:type="MSShapeGroup"></path>
            <path d="M46.396,96.412 C45.182,96.204 43.958,95.94 42.752,95.62 C41.152,95.2 39.51,96.154 39.086,97.754 C38.662,99.358 39.618,100.998 41.218,101.422 C42.598,101.786 44.002,102.092 45.392,102.326 C45.562,102.356 45.73,102.368 45.898,102.368 C47.334,102.368 48.602,101.334 48.852,99.87 C49.13,98.238 48.03,96.69 46.396,96.412" id="Fill-161" sketch:type="MSShapeGroup"></path>
            <path d="M57.542,96.782 C56.304,96.91 55.056,96.982 53.826,96.994 C52.17,97.012 50.84,98.37 50.858,100.026 C50.874,101.672 52.214,102.994 53.856,102.994 L53.888,102.994 C55.3,102.978 56.736,102.898 58.156,102.752 C59.804,102.582 61.004,101.108 60.834,99.46 C60.662,97.81 59.188,96.634 57.542,96.782" id="Fill-162" sketch:type="MSShapeGroup"></path>
            <path d="M68.368,94.146 C67.212,94.604 66.026,95.01 64.846,95.356 C63.256,95.82 62.344,97.486 62.808,99.076 C63.192,100.384 64.388,101.234 65.688,101.234 C65.966,101.234 66.25,101.196 66.53,101.114 C67.886,100.716 69.248,100.25 70.574,99.724 C72.116,99.114 72.87,97.372 72.26,95.832 C71.652,94.292 69.912,93.532 68.368,94.146" id="Fill-163" sketch:type="MSShapeGroup"></path>
        </g>
    </g>
</svg>