<?xml version="1.0" encoding="UTF-8" standalone="no"?>
<svg width="84px" height="84px" viewBox="0 0 84 84" version="1.1" xmlns="http://www.w3.org/2000/svg" xmlns:xlink="http://www.w3.org/1999/xlink" xmlns:sketch="http://www.bohemiancoding.com/sketch/ns">
    <!-- Generator: Sketch 3.3.2 (12043) - http://www.bohemiancoding.com/sketch -->
    <title>g167</title>
    <desc>Created with Sketch.</desc>
    <defs></defs>
    <g id="Page-1" stroke="none" stroke-width="1" fill="none" fill-rule="evenodd" sketch:type="MSPage">
        <g id="g167" sketch:type="MSLayerGroup" fill="#000000">
            <path d="M74.118,32 L52,32 L52,9.882 C52,4.448 47.436,0 42,0 C36.564,0 32,4.448 32,9.882 L32,32 L9.882,32 C4.448,32 0,36.564 0,42 C0,47.436 4.448,52 9.882,52 L32,52 L32,74.118 C32,79.552 36.564,84 42,84 C47.436,84 52,79.552 52,74.118 L52,52 L74.118,52 C79.552,52 84,47.436 84,42 C84,36.564 79.552,32 74.118,32" id="Fill-899" sketch:type="MSShapeGroup"></path>
        </g>
    </g>
</svg>