<?xml version="1.0" encoding="UTF-8" standalone="no"?>
<svg width="54px" height="54px" viewBox="0 0 54 54" version="1.1" xmlns="http://www.w3.org/2000/svg" xmlns:xlink="http://www.w3.org/1999/xlink" xmlns:sketch="http://www.bohemiancoding.com/sketch/ns">
    <!-- Generator: Sketch 3.2.2 (9983) - http://www.bohemiancoding.com/sketch -->
    <title>73 - Right (Solid)</title>
    <desc>Created with Sketch.</desc>
    <defs></defs>
    <g id="Page-1" stroke="none" stroke-width="1" fill="none" fill-rule="evenodd" sketch:type="MSPage">
        <g id="73---Right-(Solid)" sketch:type="MSLayerGroup" fill="#000000">
            <path d="M27,0 C12.112,0 0,12.112 0,27 C0,41.888 12.112,54 27,54 C41.888,54 54,41.888 54,27 C54,12.112 41.888,0 27,0 L27,0 Z M34.499,28.209 L23.001,39.707 C22.806,39.902 22.55,40 22.294,40 C22.038,40 21.782,39.902 21.587,39.707 C21.196,39.316 21.196,38.684 21.587,38.293 L32.88,27 L21.587,15.707 C21.196,15.316 21.196,14.684 21.587,14.293 C21.978,13.902 22.61,13.902 23.001,14.293 L34.499,25.791 C35.166,26.458 35.166,27.542 34.499,28.209 L34.499,28.209 Z" id="Right" sketch:type="MSShapeGroup"></path>
        </g>
    </g>
</svg>