<?xml version="1.0" encoding="UTF-8" standalone="no"?>
<svg width="96px" height="118px" viewBox="0 0 96 118" version="1.1" xmlns="http://www.w3.org/2000/svg" xmlns:xlink="http://www.w3.org/1999/xlink" xmlns:sketch="http://www.bohemiancoding.com/sketch/ns">
    <!-- Generator: Sketch 3.3.2 (12043) - http://www.bohemiancoding.com/sketch -->
    <title>g33</title>
    <desc>Created with Sketch.</desc>
    <defs></defs>
    <g id="Page-1" stroke="none" stroke-width="1" fill="none" fill-rule="evenodd" sketch:type="MSPage">
        <g id="g33" sketch:type="MSLayerGroup" fill="#000000">
            <path d="M94,12 L65.912,12 C65.692,9.5 64.922,5.284 62.286,2.578 C60.618,0.868 58.502,0 55.998,0 L36,0 C33.496,0 31.38,0.868 29.712,2.578 C27.076,5.284 26.306,9.5 26.086,12 L2,12 C0.896,12 0,12.894 0,14 C0,15.106 0.896,16 2,16 L6.082,16 L9.912,108.042 C9.986,111.486 12.13,118 19.728,118 L76.272,118 C83.87,118 86.014,111.486 86.086,108.084 L89.918,16 L94,16 C95.104,16 96,15.106 96,14 C96,12.894 95.104,12 94,12 L94,12 Z M30,100 C30,101.106 29.104,102 28,102 C26.896,102 26,101.106 26,100 L26,34 C26,32.894 26.896,32 28,32 C29.104,32 30,32.894 30,34 L30,100 L30,100 Z M50,100 C50,101.106 49.104,102 48,102 C46.896,102 46,101.106 46,100 L46,34 C46,32.894 46.896,32 48,32 C49.104,32 50,32.894 50,34 L50,100 L50,100 Z M70,100 C70,101.106 69.104,102 68,102 C66.896,102 66,101.106 66,100 L66,34 C66,32.894 66.896,32 68,32 C69.104,32 70,32.894 70,34 L70,100 L70,100 Z M32.586,5.362 C33.48,4.446 34.598,4 36,4 L55.998,4 C57.4,4 58.518,4.446 59.414,5.362 C61.024,7.008 61.668,9.904 61.892,12 L30.106,12 C30.33,9.904 30.976,7.008 32.586,5.362 L32.586,5.362 Z" id="Fill-702" sketch:type="MSShapeGroup"></path>
        </g>
    </g>
</svg>