<?xml version="1.0" encoding="UTF-8" standalone="no"?>
<svg width="54px" height="54px" viewBox="0 0 54 54" version="1.1" xmlns="http://www.w3.org/2000/svg" xmlns:xlink="http://www.w3.org/1999/xlink" xmlns:sketch="http://www.bohemiancoding.com/sketch/ns">
    <!-- Generator: Sketch 3.2.2 (9983) - http://www.bohemiancoding.com/sketch -->
    <title>75 - Up (Solid)</title>
    <desc>Created with Sketch.</desc>
    <defs></defs>
    <g id="Page-1" stroke="none" stroke-width="1" fill="none" fill-rule="evenodd" sketch:type="MSPage">
        <g id="75---Up-(Solid)" sketch:type="MSLayerGroup" fill="#000000">
            <path d="M27,0 C12.112,0 0,12.112 0,27 C0,41.888 12.112,54 27,54 C41.888,54 54,41.888 54,27 C54,12.112 41.888,0 27,0 L27,0 Z M39.707,32.413 C39.512,32.608 39.256,32.706 39,32.706 C38.744,32.706 38.488,32.608 38.293,32.413 L27,21.12 L15.707,32.413 C15.316,32.804 14.684,32.804 14.293,32.413 C13.902,32.022 13.902,31.39 14.293,30.999 L25.791,19.501 C26.457,18.835 27.543,18.835 28.209,19.501 L39.707,30.999 C40.098,31.39 40.098,32.022 39.707,32.413 L39.707,32.413 Z" id="Up" sketch:type="MSShapeGroup"></path>
        </g>
    </g>
</svg>